<svg width="343" height="134" viewBox="0 0 343 134" fill="none" xmlns="http://www.w3.org/2000/svg">
<path d="M0 0H343V133.5H0V0Z" fill="#100929"/>
<path d="M110.68 63.8V73H104V50.2H110.76L116.8 59.4C117.707 60.76 118.4 61.9067 118.88 62.84H119V59V50.2H125.64V73H118.84L112.64 63.4L110.84 60.68H110.72L110.68 63.8ZM142.786 68H136.146L134.946 73H127.586L134.946 50.2H144.346L151.386 73H143.986L142.786 68ZM139.426 55.12L137.066 63.56H141.826L139.586 55.12H139.426ZM163.538 73H156.338V55.2H149.898V50.2H169.978V55.2H163.538V73ZM172.321 50.2H179.561V58.56H185.761V50.2H193.001V73H185.761V63.16H179.561V73H172.321V50.2ZM210.247 68H203.607L202.407 73H195.047L202.407 50.2H211.807L218.847 73H211.447L210.247 68ZM206.887 55.12L204.527 63.56H209.287L207.047 55.12H206.887ZM227.516 63.8V73H220.836V50.2H227.596L233.636 59.4C234.543 60.76 235.236 61.9067 235.716 62.84H235.836V59V50.2H242.476V73H235.676L229.476 63.4L227.676 60.68H227.556L227.516 63.8ZM281.838 73H275.118L274.598 60.44C274.518 57.96 274.424 56.08 274.318 54.8H274.198C273.878 55.8133 273.504 57.3867 273.078 59.52L272.878 60.52L270.118 73H263.398L261.078 61.76L260.678 59.76C260.118 57.28 259.731 55.6267 259.518 54.8H259.398C259.291 56.1333 259.198 58.3067 259.118 61.32C259.091 61.5067 259.078 61.8 259.078 62.2L258.718 73H251.958L252.918 50.2H264.358L266.318 60.04L266.798 62.68C267.011 61.8533 267.211 60.9333 267.398 59.92L269.238 50.2H280.918L281.838 73ZM288.727 73.32C287.634 73.32 286.727 72.96 286.007 72.24C285.314 71.52 284.967 70.5467 284.967 69.32C284.967 68.2533 285.327 67.36 286.047 66.64C286.794 65.8933 287.727 65.52 288.847 65.52C289.914 65.52 290.807 65.8933 291.527 66.64C292.247 67.36 292.607 68.2533 292.607 69.32C292.607 70.5467 292.247 71.52 291.527 72.24C290.834 72.96 289.901 73.32 288.727 73.32Z" fill="#DFDFDF"/>
<path d="M142.406 85.5H141.438C141.38 85.2214 141.28 84.9766 141.137 84.7656C140.996 84.5547 140.824 84.3776 140.621 84.2344C140.421 84.0885 140.198 83.9792 139.953 83.9062C139.708 83.8333 139.453 83.7969 139.188 83.7969C138.703 83.7969 138.264 83.9193 137.871 84.1641C137.48 84.4089 137.169 84.7695 136.938 85.2461C136.708 85.7227 136.594 86.3073 136.594 87C136.594 87.6927 136.708 88.2773 136.938 88.7539C137.169 89.2305 137.48 89.5911 137.871 89.8359C138.264 90.0807 138.703 90.2031 139.188 90.2031C139.453 90.2031 139.708 90.1667 139.953 90.0937C140.198 90.0208 140.421 89.9128 140.621 89.7695C140.824 89.6237 140.996 89.4453 141.137 89.2344C141.28 89.0208 141.38 88.776 141.438 88.5H142.406C142.333 88.9089 142.201 89.2747 142.008 89.5977C141.815 89.9206 141.576 90.1953 141.289 90.4219C141.003 90.6458 140.681 90.8164 140.324 90.9336C139.97 91.0508 139.591 91.1094 139.188 91.1094C138.505 91.1094 137.898 90.9427 137.367 90.6094C136.836 90.276 136.418 89.8021 136.113 89.1875C135.809 88.5729 135.656 87.8437 135.656 87C135.656 86.1562 135.809 85.4271 136.113 84.8125C136.418 84.1979 136.836 83.724 137.367 83.3906C137.898 83.0573 138.505 82.8906 139.188 82.8906C139.591 82.8906 139.97 82.9492 140.324 83.0664C140.681 83.1836 141.003 83.3555 141.289 83.582C141.576 83.806 141.815 84.0794 142.008 84.4023C142.201 84.7227 142.333 85.0885 142.406 85.5ZM149.912 91V83H152.615C153.24 83 153.753 83.1068 154.154 83.3203C154.555 83.5312 154.852 83.8216 155.044 84.1914C155.237 84.5612 155.334 84.9818 155.334 85.4531C155.334 85.9245 155.237 86.3424 155.044 86.707C154.852 87.0716 154.556 87.3581 154.158 87.5664C153.759 87.7721 153.25 87.875 152.63 87.875H150.443V87H152.599C153.026 87 153.37 86.9375 153.63 86.8125C153.893 86.6875 154.084 86.5104 154.201 86.2812C154.321 86.0495 154.38 85.7734 154.38 85.4531C154.38 85.1328 154.321 84.8529 154.201 84.6133C154.081 84.3737 153.89 84.1888 153.627 84.0586C153.364 83.9258 153.016 83.8594 152.584 83.8594H150.88V91H149.912ZM153.677 87.4062L155.646 91H154.521L152.584 87.4062H153.677ZM162.888 91V83H167.716V83.8594H163.857V86.5625H167.466V87.4219H163.857V90.1406H167.778V91H162.888ZM175.73 91H174.715L177.652 83H178.652L181.59 91H180.574L178.183 84.2656H178.121L175.73 91ZM176.105 87.875H180.199V88.7344H176.105V87.875ZM187.404 83.8594V83H193.404V83.8594H190.888V91H189.919V83.8594H187.404ZM201.807 83V91H200.839V83H201.807ZM216.44 87C216.44 87.8437 216.287 88.5729 215.983 89.1875C215.678 89.8021 215.26 90.276 214.729 90.6094C214.198 90.9427 213.591 91.1094 212.909 91.1094C212.226 91.1094 211.619 90.9427 211.088 90.6094C210.557 90.276 210.139 89.8021 209.834 89.1875C209.53 88.5729 209.377 87.8437 209.377 87C209.377 86.1562 209.53 85.4271 209.834 84.8125C210.139 84.1979 210.557 83.724 211.088 83.3906C211.619 83.0573 212.226 82.8906 212.909 82.8906C213.591 82.8906 214.198 83.0573 214.729 83.3906C215.26 83.724 215.678 84.1979 215.983 84.8125C216.287 85.4271 216.44 86.1562 216.44 87ZM215.502 87C215.502 86.3073 215.386 85.7227 215.155 85.2461C214.925 84.7695 214.614 84.4089 214.221 84.1641C213.83 83.9193 213.393 83.7969 212.909 83.7969C212.424 83.7969 211.985 83.9193 211.592 84.1641C211.202 84.4089 210.89 84.7695 210.659 85.2461C210.429 85.7227 210.315 86.3073 210.315 87C210.315 87.6927 210.429 88.2773 210.659 88.7539C210.89 89.2305 211.202 89.5911 211.592 89.8359C211.985 90.0807 212.424 90.2031 212.909 90.2031C213.393 90.2031 213.83 90.0807 214.221 89.8359C214.614 89.5911 214.925 89.2305 215.155 88.7539C215.386 88.2773 215.502 87.6927 215.502 87ZM230.352 83V91H229.415L225.056 84.7187H224.977V91H224.009V83H224.946L229.321 89.2969H229.399V83H230.352ZM242.606 85C242.559 84.6042 242.369 84.2969 242.036 84.0781C241.702 83.8594 241.293 83.75 240.809 83.75C240.455 83.75 240.145 83.8073 239.879 83.9219C239.616 84.0365 239.411 84.194 239.262 84.3945C239.116 84.5951 239.043 84.8229 239.043 85.0781C239.043 85.2917 239.094 85.4753 239.196 85.6289C239.3 85.7799 239.433 85.9062 239.594 86.0078C239.756 86.1068 239.925 86.1888 240.102 86.2539C240.279 86.3164 240.442 86.3672 240.59 86.4062L241.403 86.625C241.611 86.6797 241.843 86.7552 242.098 86.8516C242.356 86.9479 242.602 87.0794 242.836 87.2461C243.073 87.4102 243.269 87.6211 243.422 87.8789C243.576 88.1367 243.653 88.4531 243.653 88.8281C243.653 89.2604 243.54 89.651 243.313 90C243.089 90.349 242.761 90.6263 242.329 90.832C241.899 91.0378 241.377 91.1406 240.762 91.1406C240.189 91.1406 239.693 91.0482 239.274 90.8633C238.857 90.6784 238.529 90.4206 238.29 90.0898C238.053 89.7591 237.918 89.375 237.887 88.9375H238.887C238.913 89.2396 239.015 89.4896 239.192 89.6875C239.372 89.8828 239.598 90.0286 239.872 90.125C240.148 90.2187 240.444 90.2656 240.762 90.2656C241.132 90.2656 241.464 90.2057 241.758 90.0859C242.053 89.9635 242.286 89.7943 242.458 89.5781C242.629 89.3594 242.715 89.1042 242.715 88.8125C242.715 88.5469 242.641 88.3307 242.493 88.1641C242.344 87.9974 242.149 87.862 241.907 87.7578C241.665 87.6536 241.403 87.5625 241.122 87.4844L240.137 87.2031C239.512 87.0234 239.017 86.7669 238.653 86.4336C238.288 86.1003 238.106 85.6641 238.106 85.125C238.106 84.6771 238.227 84.2865 238.469 83.9531C238.714 83.6172 239.042 83.3568 239.454 83.1719C239.868 82.9844 240.33 82.8906 240.84 82.8906C241.356 82.8906 241.814 82.9831 242.215 83.168C242.616 83.3503 242.934 83.6003 243.168 83.918C243.405 84.2357 243.53 84.5964 243.543 85H242.606Z" fill="white"/>
<path d="M23.7505 48.7755L29.6719 75.0341L16.0148 78.1138L7.01371 38.1981L47.0094 29.179L50.0891 42.836L23.7505 48.7755Z" fill="#FF5100"/>
<path d="M80.4161 77.4488L74.499 51.1892L88.1566 48.1118L97.1512 88.0289L57.154 97.0415L54.0765 83.3839L80.4161 77.4488Z" fill="#FF5100"/>
<path d="M42.9423 96.5056L23.7205 96.5739L63.7359 28.14L83.9778 28.0681L42.9423 96.5056Z" fill="#6D0D99"/>
<line x1="104" y1="87.5" x2="133" y2="87.5" stroke="#DFDFDF"/>
<line x1="247" y1="87.5" x2="293" y2="87.5" stroke="#DFDFDF"/>
</svg>
