<svg width="36" height="36" viewBox="0 0 36 36" fill="none" xmlns="http://www.w3.org/2000/svg">
<path d="M26.48 17.0179L29.62 13.8779L22.12 6.37789L18.98 9.51789L10.7 1.25789C9.14 -0.302109 6.6 -0.302109 5.04 1.25789L1.24 5.05789C-0.32 6.61789 -0.32 9.15789 1.24 10.7179L9.5 18.9779L0 28.4979V35.9979H7.5L17.02 26.4779L25.28 34.7379C27.18 36.6379 29.74 35.9379 30.94 34.7379L34.74 30.9379C36.3 29.3779 36.3 26.8379 34.74 25.2779L26.48 17.0179ZM12.36 16.1379L4.08 7.87789L7.86 4.07789L10.4 6.61789L8.04 8.99789L10.86 11.8179L13.24 9.43789L16.14 12.3379L12.36 16.1379ZM28.12 31.9179L19.86 23.6579L23.66 19.8579L26.56 22.7579L24.18 25.1379L27 27.9579L29.38 25.5779L31.92 28.1179L28.12 31.9179Z" fill="url(#paint0_linear_100_86)"/>
<defs>
<linearGradient id="paint0_linear_100_86" x1="17.955" y1="0.0878906" x2="17.955" y2="35.9979" gradientUnits="userSpaceOnUse">
<stop stop-color="#9000D1"/>
<stop offset="0.702045" stop-color="#520078"/>
</linearGradient>
</defs>
</svg>
