<svg width="38" height="42" viewBox="0 0 38 42" fill="none" xmlns="http://www.w3.org/2000/svg">
<path d="M14.1767 34.25C5.60116 36.875 5.60116 29.875 2.17096 29M26.1824 39.5V32.7275C26.2467 31.893 26.1362 31.0542 25.8582 30.2666C25.5803 29.4791 25.1412 28.761 24.5702 28.16C29.9556 27.5475 35.6154 25.465 35.6154 15.91C35.615 13.4667 34.6939 11.1171 33.0427 9.34751C33.8246 7.2099 33.7693 4.84712 32.8884 2.75001C32.8884 2.75001 30.8646 2.13751 26.1824 5.34001C22.2514 4.25295 18.1076 4.25295 14.1767 5.34001C9.49443 2.13751 7.47062 2.75001 7.47062 2.75001C6.5897 4.84712 6.53442 7.2099 7.31626 9.34751C5.65283 11.1302 4.73078 13.5011 4.74361 15.9625C4.74361 25.4475 10.4034 27.53 15.7888 28.2125C15.2246 28.8075 14.7894 29.517 14.5116 30.2949C14.2339 31.0728 14.1197 31.9016 14.1767 32.7275V39.5" stroke="#6D0D99" stroke-width="3.5" stroke-linecap="round" stroke-linejoin="round"/>
</svg>
