<svg width="40" height="38" viewBox="0 0 40 38" fill="none" xmlns="http://www.w3.org/2000/svg">
<path d="M27 13C29.7848 13 32.4555 14.1062 34.4246 16.0754C36.3938 18.0445 37.5 20.7152 37.5 23.5V35.75H30.5V23.5C30.5 22.5717 30.1313 21.6815 29.4749 21.0251C28.8185 20.3687 27.9283 20 27 20C26.0717 20 25.1815 20.3687 24.5251 21.0251C23.8687 21.6815 23.5 22.5717 23.5 23.5V35.75H16.5V23.5C16.5 20.7152 17.6062 18.0445 19.5754 16.0754C21.5445 14.1062 24.2152 13 27 13Z" stroke="#6D0D99" stroke-width="3.5" stroke-linecap="round" stroke-linejoin="round"/>
<path d="M9.5 14.75H2.5V35.75H9.5V14.75Z" stroke="#6D0D99" stroke-width="3.5" stroke-linecap="round" stroke-linejoin="round"/>
<path d="M6 9.5C7.933 9.5 9.5 7.933 9.5 6C9.5 4.067 7.933 2.5 6 2.5C4.067 2.5 2.5 4.067 2.5 6C2.5 7.933 4.067 9.5 6 9.5Z" stroke="#6D0D99" stroke-width="3.5" stroke-linecap="round" stroke-linejoin="round"/>
</svg>
